{
  "accessors": [
    {
      "bufferView": 2,
      "componentType": 5126,
      "count": 3718,
      "max": [
        0.15140332281589508,
        2.865459680557251,
        1.5981051921844482
      ],
      "min": [
        -0.40638381242752075,
        -0.01593777909874916,
        -1.4274002313613892
      ],
      "type": "VEC3"
    },
    {
      "bufferView": 2,
      "byteOffset": 44616,
      "componentType": 5126,
      "count": 3718,
      "max": [
        1.0,
        1.0,
        1.0
      ],
      "min": [
        -1.0,
        -1.0,
        -1.0
      ],
      "type": "VEC3"
    },
    {
      "bufferView": 3,
      "componentType": 5126,
      "count": 3718,
      "max": [
        1.0,
        1.0,
        1.0,
        1.0
      ],
      "min": [
        -1.0,
        -1.0,
        -1.0,
        -1.0
      ],
      "type": "VEC4"
    },
    {
      "bufferView": 1,
      "componentType": 5126,
      "count": 3718,
      "max": [
        0.99609375,
        0.9960581660270691
      ],
      "min": [
        0.00390625,
        0.00390625
      ],
      "type": "VEC2"
    },
    {
      "bufferView": 1,
      "byteOffset": 29744,
      "componentType": 5126,
      "count": 3718,
      "max": [
        0.99609375,
        0.9960581660270691
      ],
      "min": [
        0.00390625,
        0.00390625
      ],
      "type": "VEC2"
    },
    {
      "bufferView": 1,
      "byteOffset": 59488,
      "componentType": 5126,
      "count": 3718,
      "max": [
        0.99609375,
        0.9960581660270691
      ],
      "min": [
        0.00390625,
        0.00390625
      ],
      "type": "VEC2"
    },
    {
      "bufferView": 1,
      "byteOffset": 89232,
      "componentType": 5126,
      "count": 3718,
      "max": [
        0.99609375,
        0.9960581660270691
      ],
      "min": [
        0.00390625,
        0.00390625
      ],
      "type": "VEC2"
    },
    {
      "bufferView": 0,
      "componentType": 5125,
      "count": 10533,
      "type": "SCALAR"
    }
  ],
  "asset": {
    "extras": {
      "author": "Freepoly.org (https://sketchfab.com/blackrray)",
      "license": "CC-BY-4.0 (http://creativecommons.org/licenses/by/4.0/)",
      "source": "https://sketchfab.com/3d-models/door-yellow-freepolyorg-0a12c7cbc4614a218fee5222dad84115",
      "title": "Door Yellow-Freepoly.org"
    },
    "generator": "Sketchfab-16.7.0",
    "version": "2.0"
  },
  "bufferViews": [
    {
      "buffer": 0,
      "byteLength": 42132,
      "name": "floatBufferViews",
      "target": 34963
    },
    {
      "buffer": 0,
      "byteLength": 118976,
      "byteOffset": 42132,
      "byteStride": 8,
      "name": "floatBufferViews",
      "target": 34962
    },
    {
      "buffer": 0,
      "byteLength": 89232,
      "byteOffset": 161108,
      "byteStride": 12,
      "name": "floatBufferViews",
      "target": 34962
    },
    {
      "buffer": 0,
      "byteLength": 59488,
      "byteOffset": 250340,
      "byteStride": 16,
      "name": "floatBufferViews",
      "target": 34962
    }
  ],
  "buffers": [
    {
      "byteLength": 309828,
      "uri": "scene.bin"
    }
  ],
  "images": [
    {
      "uri": "textures/material_baseColor.jpeg"
    },
    {
      "uri": "textures/material_metallicRoughness.png"
    },
    {
      "uri": "textures/material_normal.jpeg"
    }
  ],
  "materials": [
    {
      "doubleSided": true,
      "name": "material",
      "normalTexture": {
        "index": 2,
        "texCoord": 2
      },
      "pbrMetallicRoughness": {
        "baseColorTexture": {
          "index": 0
        },
        "metallicRoughnessTexture": {
          "index": 1,
          "texCoord": 1
        }
      }
    }
  ],
  "meshes": [
    {
      "name": "Object_0",
      "primitives": [
        {
          "attributes": {
            "NORMAL": 1,
            "POSITION": 0,
            "TANGENT": 2,
            "TEXCOORD_0": 3,
            "TEXCOORD_1": 4,
            "TEXCOORD_2": 5,
            "TEXCOORD_3": 6
          },
          "indices": 7,
          "material": 0,
          "mode": 4
        }
      ]
    }
  ],
  "nodes": [
    {
      "children": [
        1
      ],
      "matrix": [
        1.0,
        0.0,
        0.0,
        0.0,
        0.0,
        2.220446049250313e-16,
        -1.0,
        0.0,
        0.0,
        1.0,
        2.220446049250313e-16,
        0.0,
        0.0,
        0.0,
        0.0,
        1.0
      ],
      "name": "Sketchfab_model"
    },
    {
      "children": [
        2
      ],
      "name": "root"
    },
    {
      "children": [
        3
      ],
      "matrix": [
        1.0,
        0.0,
        0.0,
        0.0,
        0.0,
        2.220446049250313e-16,
        1.0,
        0.0,
        0.0,
        -1.0,
        2.220446049250313e-16,
        0.0,
        0.0,
        0.0,
        0.0,
        1.0
      ],
      "name": "GLTF_SceneRootNode"
    },
    {
      "children": [
        4
      ],
      "matrix": [
        1.0,
        0.0,
        0.0,
        0.0,
        0.0,
        1.0,
        0.0,
        0.0,
        0.0,
        0.0,
        1.0,
        0.0,
        -5.44197940826416,
        4.9966888427734375,
        -251.1363525390625,
        1.0
      ],
      "name": "Door Yellow.001_0"
    },
    {
      "mesh": 0,
      "name": "Object_4"
    }
  ],
  "samplers": [
    {
      "magFilter": 9729,
      "minFilter": 9987,
      "wrapS": 10497,
      "wrapT": 10497
    }
  ],
  "scene": 0,
  "scenes": [
    {
      "name": "Sketchfab_Scene",
      "nodes": [
        0
      ]
    }
  ],
  "textures": [
    {
      "sampler": 0,
      "source": 0
    },
    {
      "sampler": 0,
      "source": 1
    },
    {
      "sampler": 0,
      "source": 2
    }
  ]
}
